<mxfile host="app.diagrams.net" modified="2024-03-30T17:03:11.148Z" agent="Mozilla/5.0 (Windows NT 10.0; Win64; x64) AppleWebKit/537.36 (KHTML, like Gecko) Chrome/123.0.0.0 Safari/537.36" etag="58kgax6DaLadSk4wxeaC" version="24.2.1" type="google">
  <diagram name="Page-1" id="e7e014a7-5840-1c2e-5031-d8a46d1fe8dd">
    <mxGraphModel grid="1" page="1" gridSize="10" guides="1" tooltips="1" connect="1" arrows="1" fold="1" pageScale="1" pageWidth="1169" pageHeight="826" background="none" math="0" shadow="0">
      <root>
        <mxCell id="0" />
        <mxCell id="1" parent="0" />
        <mxCell id="2" value="Usuario" style="swimlane;whiteSpace=wrap" vertex="1" parent="1">
          <mxGeometry x="165" y="128" width="280" height="570" as="geometry" />
        </mxCell>
        <mxCell id="5" value="" style="ellipse;shape=startState;fillColor=#000000;strokeColor=#ff0000;" vertex="1" parent="2">
          <mxGeometry x="100" y="40" width="30" height="30" as="geometry" />
        </mxCell>
        <mxCell id="6" value="" style="edgeStyle=elbowEdgeStyle;elbow=horizontal;verticalAlign=bottom;endArrow=open;endSize=8;strokeColor=#FF0000;endFill=1;rounded=0" edge="1" parent="2" source="5" target="7">
          <mxGeometry x="100" y="40" as="geometry">
            <mxPoint x="115" y="110" as="targetPoint" />
          </mxGeometry>
        </mxCell>
        <mxCell id="7" value="Solicitar crear nuevo usuario" style="" vertex="1" parent="2">
          <mxGeometry x="30" y="110" width="180" height="50" as="geometry" />
        </mxCell>
        <mxCell id="8" value="Ingresar la información requerida" style="" vertex="1" parent="2">
          <mxGeometry x="20" y="192" width="200" height="50" as="geometry" />
        </mxCell>
        <mxCell id="9" value="" style="endArrow=open;strokeColor=#FF0000;endFill=1;rounded=0" edge="1" parent="2" source="7" target="8">
          <mxGeometry relative="1" as="geometry" />
        </mxCell>
        <mxCell id="A2w65zCvAoBj9SVYIWGa-44" value="yes" style="edgeStyle=orthogonalEdgeStyle;html=1;align=left;verticalAlign=top;endArrow=open;endSize=8;strokeColor=#ff0000;rounded=0;exitX=0.5;exitY=1;exitDx=0;exitDy=0;" edge="1" parent="2" source="A2w65zCvAoBj9SVYIWGa-42">
          <mxGeometry x="-1" relative="1" as="geometry">
            <mxPoint x="420" y="302" as="targetPoint" />
            <Array as="points">
              <mxPoint x="420" y="292" />
              <mxPoint x="420" y="292" />
            </Array>
          </mxGeometry>
        </mxCell>
        <mxCell id="A2w65zCvAoBj9SVYIWGa-53" value="" style="ellipse;html=1;shape=endState;fillColor=#000000;strokeColor=#ff0000;" vertex="1" parent="2">
          <mxGeometry x="105" y="402" width="30" height="30" as="geometry" />
        </mxCell>
        <mxCell id="3" value="Sistema" style="swimlane;whiteSpace=wrap" vertex="1" parent="1">
          <mxGeometry x="445" y="128" width="280" height="570" as="geometry" />
        </mxCell>
        <mxCell id="10" value="Validar información del usuario" style="" vertex="1" parent="3">
          <mxGeometry x="50" y="72" width="180" height="50" as="geometry" />
        </mxCell>
        <mxCell id="A2w65zCvAoBj9SVYIWGa-42" value="¿Informacion Valida?" style="rhombus;whiteSpace=wrap;html=1;fontColor=#000000;fillColor=#ffffc0;strokeColor=#ff0000;" vertex="1" parent="3">
          <mxGeometry x="90" y="164" width="100" height="78" as="geometry" />
        </mxCell>
        <mxCell id="A2w65zCvAoBj9SVYIWGa-46" value="Registrar usuario en la base de datos" style="" vertex="1" parent="3">
          <mxGeometry x="35" y="302" width="210" height="50" as="geometry" />
        </mxCell>
        <mxCell id="A2w65zCvAoBj9SVYIWGa-49" value="Mostrar mensaje de confirmación" style="whiteSpace=wrap;html=1;" vertex="1" parent="3">
          <mxGeometry x="80" y="395.5" width="120" height="43" as="geometry" />
        </mxCell>
        <mxCell id="A2w65zCvAoBj9SVYIWGa-54" value="" style="edgeStyle=elbowEdgeStyle;elbow=horizontal;verticalAlign=bottom;endArrow=open;endSize=8;strokeColor=#FF0000;endFill=1;rounded=0;exitX=0.5;exitY=1;exitDx=0;exitDy=0;entryX=0.5;entryY=0;entryDx=0;entryDy=0;" edge="1" parent="3" source="10" target="A2w65zCvAoBj9SVYIWGa-42">
          <mxGeometry x="-345" y="-88" as="geometry">
            <mxPoint x="-45" y="132" as="targetPoint" />
            <mxPoint x="-160" y="80" as="sourcePoint" />
            <Array as="points">
              <mxPoint x="140" y="142" />
            </Array>
          </mxGeometry>
        </mxCell>
        <mxCell id="A2w65zCvAoBj9SVYIWGa-55" value="" style="edgeStyle=elbowEdgeStyle;elbow=horizontal;verticalAlign=bottom;endArrow=open;endSize=8;strokeColor=#FF0000;endFill=1;rounded=0;exitX=0.5;exitY=1;exitDx=0;exitDy=0;" edge="1" parent="3" source="A2w65zCvAoBj9SVYIWGa-46" target="A2w65zCvAoBj9SVYIWGa-49">
          <mxGeometry x="-345" y="-88" as="geometry">
            <mxPoint x="-150" y="130" as="targetPoint" />
            <mxPoint x="95" y="362" as="sourcePoint" />
          </mxGeometry>
        </mxCell>
        <mxCell id="11" value="" style="endArrow=open;strokeColor=#FF0000;endFill=1;rounded=0;entryX=0;entryY=0.5;entryDx=0;entryDy=0;" edge="1" parent="1" source="8" target="10">
          <mxGeometry relative="1" as="geometry">
            <Array as="points">
              <mxPoint x="460" y="345" />
              <mxPoint x="460" y="290" />
              <mxPoint x="460" y="225" />
            </Array>
          </mxGeometry>
        </mxCell>
        <mxCell id="A2w65zCvAoBj9SVYIWGa-43" value="no" style="edgeStyle=orthogonalEdgeStyle;html=1;align=left;verticalAlign=bottom;endArrow=open;endSize=8;strokeColor=#ff0000;rounded=0;entryX=1;entryY=0.25;entryDx=0;entryDy=0;" edge="1" parent="1" source="A2w65zCvAoBj9SVYIWGa-42" target="8">
          <mxGeometry x="-1" relative="1" as="geometry">
            <mxPoint x="410" y="320" as="targetPoint" />
          </mxGeometry>
        </mxCell>
        <mxCell id="A2w65zCvAoBj9SVYIWGa-57" value="" style="edgeStyle=elbowEdgeStyle;elbow=horizontal;verticalAlign=bottom;endArrow=open;endSize=8;strokeColor=#FF0000;endFill=1;rounded=0;exitX=0;exitY=0.5;exitDx=0;exitDy=0;entryX=1;entryY=0.5;entryDx=0;entryDy=0;" edge="1" parent="1" source="A2w65zCvAoBj9SVYIWGa-49" target="A2w65zCvAoBj9SVYIWGa-53">
          <mxGeometry x="-345" y="-88" as="geometry">
            <mxPoint x="595" y="534" as="targetPoint" />
            <mxPoint x="595" y="490" as="sourcePoint" />
          </mxGeometry>
        </mxCell>
      </root>
    </mxGraphModel>
  </diagram>
</mxfile>
